<?xml version="1.0" standalone="no"?>
<!DOCTYPE svg PUBLIC "-//W3C//DTD SVG 20010904//EN"
 "http://www.w3.org/TR/2001/REC-SVG-20010904/DTD/svg10.dtd">
<svg version="1.0" xmlns="http://www.w3.org/2000/svg"
 width="129.000000pt" height="129.000000pt" viewBox="0 0 129.000000 129.000000"
 preserveAspectRatio="xMidYMid meet">
<metadata>
Created by potrace 1.14, written by Peter Selinger 2001-2017
</metadata>
<g transform="translate(0.000000,129.000000) scale(0.100000,-0.100000)"
fill="#000000" stroke="none">
<path d="M62 1032 l-62 -37 2 -74 3 -75 59 -34 60 -35 63 34 64 34 -3 78 -3
78 -60 33 -60 34 -63 -36z"/>
<path d="M342 1033 l-62 -37 0 -72 0 -73 65 -36 65 -37 63 39 62 39 0 70 -1
69 -59 37 c-33 20 -62 37 -65 37 -3 1 -33 -16 -68 -36z"/>
<path d="M203 794 l-63 -35 0 -74 0 -74 65 -36 65 -37 60 37 c33 20 61 42 61
48 3 31 0 120 -4 131 -4 10 -108 76 -119 76 -2 0 -31 -16 -65 -36z"/>
<path d="M1210 804 c0 -14 7 -20 28 -21 15 -1 20 1 12 4 -8 3 -21 12 -27 21
-12 14 -13 14 -13 -4z"/>
<path d="M1235 810 c-3 -5 -1 -10 4 -10 6 0 11 5 11 10 0 6 -2 10 -4 10 -3 0
-8 -4 -11 -10z"/>
<path d="M1266 811 c-3 -5 1 -14 9 -21 10 -9 15 -9 15 -1 0 6 -6 11 -12 11 -9
0 -8 4 2 10 9 6 10 10 3 10 -6 0 -14 -4 -17 -9z"/>
<path d="M458 751 c-29 -26 -33 -35 -36 -98 -5 -81 13 -132 53 -159 44 -29
162 -21 162 11 0 10 -6 14 -15 10 -91 -35 -144 5 -147 114 -3 63 7 91 37 114
35 26 73 16 98 -26 11 -17 20 -30 21 -27 1 3 2 20 3 38 2 42 -15 52 -88 52
-47 0 -61 -4 -88 -29z"/>
<path d="M719 765 c-59 -32 -40 -104 40 -150 54 -31 73 -64 54 -94 -22 -35
-99 -25 -109 14 -9 36 -24 31 -24 -9 0 -42 7 -47 69 -48 61 -2 105 16 119 47
22 48 -1 90 -68 128 -59 33 -73 50 -65 76 13 43 88 38 108 -7 l11 -27 4 28 c6
49 -2 57 -60 57 -29 -1 -65 -7 -79 -15z"/>
<path d="M910 768 c0 -4 7 -8 15 -8 13 0 15 -21 15 -128 0 -124 -1 -129 -22
-140 -19 -9 -13 -11 37 -11 50 0 56 2 38 11 -22 10 -23 17 -23 122 0 76 3 106
10 96 5 -8 38 -63 72 -122 51 -88 66 -108 85 -108 23 0 23 1 23 140 0 118 2
140 15 140 8 0 15 4 15 9 0 6 -23 10 -52 9 -51 0 -51 0 -30 -17 21 -16 23 -23
20 -116 l-3 -99 -69 118 -68 117 -39 -3 c-21 -1 -39 -6 -39 -10z"/>
<path d="M38 393 c7 -3 16 -2 19 1 4 3 -2 6 -13 5 -11 0 -14 -3 -6 -6z"/>
<path d="M238 393 c7 -3 16 -2 19 1 4 3 -2 6 -13 5 -11 0 -14 -3 -6 -6z"/>
<path d="M278 393 c7 -3 16 -2 19 1 4 3 -2 6 -13 5 -11 0 -14 -3 -6 -6z"/>
<path d="M318 393 c7 -3 16 -2 19 1 4 3 -2 6 -13 5 -11 0 -14 -3 -6 -6z"/>
<path d="M358 393 c7 -3 16 -2 19 1 4 3 -2 6 -13 5 -11 0 -14 -3 -6 -6z"/>
<path d="M558 393 c7 -3 16 -2 19 1 4 3 -2 6 -13 5 -11 0 -14 -3 -6 -6z"/>
<path d="M598 393 c7 -3 16 -2 19 1 4 3 -2 6 -13 5 -11 0 -14 -3 -6 -6z"/>
<path d="M1118 393 c7 -3 16 -2 19 1 4 3 -2 6 -13 5 -11 0 -14 -3 -6 -6z"/>
<path d="M12 328 c-16 -16 -15 -40 4 -64 15 -19 16 -19 9 1 -8 23 -8 24 -6 49
1 13 6 17 21 13 11 -3 20 -1 20 4 0 13 -34 11 -48 -3z"/>
<path d="M479 328 c0 -7 -2 -26 -3 -41 -1 -16 2 -31 6 -33 4 -3 8 15 8 40 0
25 -2 46 -5 46 -3 0 -5 -6 -6 -12z"/>
<path d="M668 295 c5 -53 21 -52 18 1 -1 29 2 34 16 31 10 -3 18 -1 18 4 0 5
-12 9 -28 9 -26 0 -27 -2 -24 -45z"/>
<path d="M437 323 c-6 -9 -1 -63 6 -69 3 -3 7 11 9 31 4 34 -5 55 -15 38z"/>
<path d="M82 308 c-16 -16 -15 -33 4 -48 22 -19 54 12 38 37 -14 22 -27 26
-42 11z m28 -23 c0 -14 -4 -25 -10 -25 -5 0 -10 11 -10 25 0 14 5 25 10 25 6
0 10 -11 10 -25z"/>
<path d="M153 313 c-19 -7 -16 -50 3 -57 22 -9 34 1 34 29 0 24 -16 35 -37 28z
m27 -34 c0 -20 -15 -26 -25 -9 -9 15 3 43 15 35 5 -3 10 -15 10 -26z"/>
<path d="M209 312 c-3 -24 -1 -74 5 -79 3 -4 6 1 6 10 0 9 3 16 8 16 21 -4 32
3 32 20 0 20 -14 34 -37 37 -7 1 -13 -1 -14 -4z m34 -45 c-9 -16 -26 12 -18
30 7 17 8 17 15 -2 4 -11 5 -24 3 -28z"/>
<path d="M283 313 c-18 -7 -16 -50 3 -57 24 -9 27 -7 10 9 -8 9 -12 23 -9 32
4 11 8 13 11 5 4 -14 22 -16 22 -3 0 11 -21 19 -37 14z"/>
<path d="M341 312 c-14 -5 -15 -52 -1 -52 6 0 9 3 9 8 -4 21 3 30 27 35 18 3
24 1 20 -8 -2 -7 1 -21 8 -30 11 -15 12 -14 11 8 0 14 -3 29 -8 33 -8 8 -49
12 -66 6z"/>
<path d="M517 287 c17 -37 17 -37 30 -15 15 27 17 51 2 25 -10 -16 -12 -16
-30 5 -19 23 -19 23 -2 -15z"/>
<path d="M575 311 c-3 -7 0 -8 9 -5 9 3 16 1 16 -5 0 -6 -7 -11 -16 -11 -22 0
-14 -32 9 -36 15 -2 18 3 15 29 -3 31 -21 46 -33 28z m25 -35 c0 -3 -4 -8 -10
-11 -5 -3 -10 -1 -10 4 0 6 5 11 10 11 6 0 10 -2 10 -4z"/>
<path d="M736 308 c-7 -21 -3 -48 6 -48 4 0 8 14 8 30 0 31 -8 40 -14 18z"/>
<path d="M770 286 c0 -39 9 -45 14 -10 2 10 8 20 15 22 9 3 11 -2 6 -17 -4
-12 -2 -21 4 -21 13 0 15 47 2 55 -5 3 -13 0 -17 -6 -4 -8 -9 -7 -15 2 -6 9
-9 1 -9 -25z"/>
<path d="M839 308 c-11 -8 -11 -9 3 -4 10 3 20 1 23 -4 3 -5 -4 -11 -15 -15
-21 -7 -26 -20 -11 -29 17 -11 41 6 41 29 0 26 -20 38 -41 23z m31 -32 c0 -3
-4 -8 -10 -11 -5 -3 -10 -1 -10 4 0 6 5 11 10 11 6 0 10 -2 10 -4z"/>
<path d="M897 285 c8 -40 13 -45 13 -12 0 15 5 27 10 27 6 0 10 -9 10 -20 0
-11 4 -20 9 -20 7 0 8 27 2 50 0 3 -12 5 -25 5 -22 0 -24 -3 -19 -30z"/>
<path d="M973 313 c-18 -7 -16 -50 3 -57 24 -9 27 -7 10 9 -18 18 -11 46 10
38 8 -3 14 -3 14 0 0 8 -24 14 -37 10z"/>
<path d="M1057 313 c-13 -12 -7 -51 9 -57 25 -10 27 -7 8 12 -17 16 -17 17 4
20 12 2 20 7 17 12 -3 5 -13 6 -22 3 -11 -4 -14 -3 -9 5 8 13 3 16 -7 5z"/>
<path d="M1110 288 c0 -15 4 -28 9 -28 6 0 8 9 6 20 -3 16 2 20 21 20 13 0 24
3 24 8 0 4 -13 7 -30 7 -26 1 -30 -3 -30 -27z"/>
<path d="M1020 279 c0 -35 8 -35 15 -1 2 12 0 24 -6 27 -5 4 -9 -8 -9 -26z"/>
<path d="M1166 289 c-16 -16 -17 -21 -6 -32 10 -10 12 -9 7 6 -4 9 -2 17 3 17
6 0 10 -7 10 -17 0 -21 9 -12 15 15 5 29 -6 33 -29 11z"/>
<path d="M370 271 c0 -6 5 -13 10 -16 6 -3 10 1 10 9 0 9 -4 16 -10 16 -5 0
-10 -4 -10 -9z"/>
</g>
</svg>
